<?xml version="1.0" standalone="no"?>
<svg xmlns:xlink="http://www.w3.org/1999/xlink" version="1.1" xmlns="http://www.w3.org/2000/svg" id="QRCodeGenerate" class="img-fluid mw-75" data-copyright="my-qrcode.net" data-modulecount="33" data-defaultsize="350" data-defaultclass="img-fluid mw-75" data-text="https://lucky-crisp-de4511.netlify.app/" data-color="rgb(0, 0, 0)" data-backcolor="none" data-typeicon="none" data-framesize="none" data-framewidth="0" data-titlelocation="none" data-titlefont="sans-serif" data-titletext="" data-typenumber="0" data-errorcorrectionlevel="Q" data-mode="Byte" data-mb="UTF-8" width="350px" height="350px" x="0px" y="0px" viewBox="0 0 350 350" preserveAspectRatio="xMinYMin meet"><rect width="100%" height="100%" fill="none" x="0" y="0"/><path d="M10,10l10,0 0,10 -10,0 0,-10z M20,10l10,0 0,10 -10,0 0,-10z M30,10l10,0 0,10 -10,0 0,-10z M40,10l10,0 0,10 -10,0 0,-10z M50,10l10,0 0,10 -10,0 0,-10z M60,10l10,0 0,10 -10,0 0,-10z M70,10l10,0 0,10 -10,0 0,-10z M120,10l10,0 0,10 -10,0 0,-10z M140,10l10,0 0,10 -10,0 0,-10z M150,10l10,0 0,10 -10,0 0,-10z M170,10l10,0 0,10 -10,0 0,-10z M180,10l10,0 0,10 -10,0 0,-10z M190,10l10,0 0,10 -10,0 0,-10z M220,10l10,0 0,10 -10,0 0,-10z M230,10l10,0 0,10 -10,0 0,-10z M250,10l10,0 0,10 -10,0 0,-10z M270,10l10,0 0,10 -10,0 0,-10z M280,10l10,0 0,10 -10,0 0,-10z M290,10l10,0 0,10 -10,0 0,-10z M300,10l10,0 0,10 -10,0 0,-10z M310,10l10,0 0,10 -10,0 0,-10z M320,10l10,0 0,10 -10,0 0,-10z M330,10l10,0 0,10 -10,0 0,-10z M10,20l10,0 0,10 -10,0 0,-10z M70,20l10,0 0,10 -10,0 0,-10z M100,20l10,0 0,10 -10,0 0,-10z M110,20l10,0 0,10 -10,0 0,-10z M120,20l10,0 0,10 -10,0 0,-10z M130,20l10,0 0,10 -10,0 0,-10z M250,20l10,0 0,10 -10,0 0,-10z M270,20l10,0 0,10 -10,0 0,-10z M330,20l10,0 0,10 -10,0 0,-10z M10,30l10,0 0,10 -10,0 0,-10z M30,30l10,0 0,10 -10,0 0,-10z M40,30l10,0 0,10 -10,0 0,-10z M50,30l10,0 0,10 -10,0 0,-10z M70,30l10,0 0,10 -10,0 0,-10z M110,30l10,0 0,10 -10,0 0,-10z M180,30l10,0 0,10 -10,0 0,-10z M200,30l10,0 0,10 -10,0 0,-10z M220,30l10,0 0,10 -10,0 0,-10z M230,30l10,0 0,10 -10,0 0,-10z M240,30l10,0 0,10 -10,0 0,-10z M250,30l10,0 0,10 -10,0 0,-10z M270,30l10,0 0,10 -10,0 0,-10z M290,30l10,0 0,10 -10,0 0,-10z M300,30l10,0 0,10 -10,0 0,-10z M310,30l10,0 0,10 -10,0 0,-10z M330,30l10,0 0,10 -10,0 0,-10z M10,40l10,0 0,10 -10,0 0,-10z M30,40l10,0 0,10 -10,0 0,-10z M40,40l10,0 0,10 -10,0 0,-10z M50,40l10,0 0,10 -10,0 0,-10z M70,40l10,0 0,10 -10,0 0,-10z M90,40l10,0 0,10 -10,0 0,-10z M110,40l10,0 0,10 -10,0 0,-10z M120,40l10,0 0,10 -10,0 0,-10z M140,40l10,0 0,10 -10,0 0,-10z M150,40l10,0 0,10 -10,0 0,-10z M220,40l10,0 0,10 -10,0 0,-10z M230,40l10,0 0,10 -10,0 0,-10z M240,40l10,0 0,10 -10,0 0,-10z M250,40l10,0 0,10 -10,0 0,-10z M270,40l10,0 0,10 -10,0 0,-10z M290,40l10,0 0,10 -10,0 0,-10z M300,40l10,0 0,10 -10,0 0,-10z M310,40l10,0 0,10 -10,0 0,-10z M330,40l10,0 0,10 -10,0 0,-10z M10,50l10,0 0,10 -10,0 0,-10z M30,50l10,0 0,10 -10,0 0,-10z M40,50l10,0 0,10 -10,0 0,-10z M50,50l10,0 0,10 -10,0 0,-10z M70,50l10,0 0,10 -10,0 0,-10z M110,50l10,0 0,10 -10,0 0,-10z M120,50l10,0 0,10 -10,0 0,-10z M130,50l10,0 0,10 -10,0 0,-10z M150,50l10,0 0,10 -10,0 0,-10z M180,50l10,0 0,10 -10,0 0,-10z M200,50l10,0 0,10 -10,0 0,-10z M270,50l10,0 0,10 -10,0 0,-10z M290,50l10,0 0,10 -10,0 0,-10z M300,50l10,0 0,10 -10,0 0,-10z M310,50l10,0 0,10 -10,0 0,-10z M330,50l10,0 0,10 -10,0 0,-10z M10,60l10,0 0,10 -10,0 0,-10z M70,60l10,0 0,10 -10,0 0,-10z M90,60l10,0 0,10 -10,0 0,-10z M110,60l10,0 0,10 -10,0 0,-10z M150,60l10,0 0,10 -10,0 0,-10z M190,60l10,0 0,10 -10,0 0,-10z M200,60l10,0 0,10 -10,0 0,-10z M230,60l10,0 0,10 -10,0 0,-10z M250,60l10,0 0,10 -10,0 0,-10z M270,60l10,0 0,10 -10,0 0,-10z M330,60l10,0 0,10 -10,0 0,-10z M10,70l10,0 0,10 -10,0 0,-10z M20,70l10,0 0,10 -10,0 0,-10z M30,70l10,0 0,10 -10,0 0,-10z M40,70l10,0 0,10 -10,0 0,-10z M50,70l10,0 0,10 -10,0 0,-10z M60,70l10,0 0,10 -10,0 0,-10z M70,70l10,0 0,10 -10,0 0,-10z M90,70l10,0 0,10 -10,0 0,-10z M110,70l10,0 0,10 -10,0 0,-10z M130,70l10,0 0,10 -10,0 0,-10z M150,70l10,0 0,10 -10,0 0,-10z M170,70l10,0 0,10 -10,0 0,-10z M190,70l10,0 0,10 -10,0 0,-10z M210,70l10,0 0,10 -10,0 0,-10z M230,70l10,0 0,10 -10,0 0,-10z M250,70l10,0 0,10 -10,0 0,-10z M270,70l10,0 0,10 -10,0 0,-10z M280,70l10,0 0,10 -10,0 0,-10z M290,70l10,0 0,10 -10,0 0,-10z M300,70l10,0 0,10 -10,0 0,-10z M310,70l10,0 0,10 -10,0 0,-10z M320,70l10,0 0,10 -10,0 0,-10z M330,70l10,0 0,10 -10,0 0,-10z M90,80l10,0 0,10 -10,0 0,-10z M120,80l10,0 0,10 -10,0 0,-10z M150,80l10,0 0,10 -10,0 0,-10z M170,80l10,0 0,10 -10,0 0,-10z M190,80l10,0 0,10 -10,0 0,-10z M200,80l10,0 0,10 -10,0 0,-10z M210,80l10,0 0,10 -10,0 0,-10z M230,80l10,0 0,10 -10,0 0,-10z M20,90l10,0 0,10 -10,0 0,-10z M30,90l10,0 0,10 -10,0 0,-10z M70,90l10,0 0,10 -10,0 0,-10z M100,90l10,0 0,10 -10,0 0,-10z M120,90l10,0 0,10 -10,0 0,-10z M150,90l10,0 0,10 -10,0 0,-10z M160,90l10,0 0,10 -10,0 0,-10z M190,90l10,0 0,10 -10,0 0,-10z M210,90l10,0 0,10 -10,0 0,-10z M240,90l10,0 0,10 -10,0 0,-10z M270,90l10,0 0,10 -10,0 0,-10z M280,90l10,0 0,10 -10,0 0,-10z M300,90l10,0 0,10 -10,0 0,-10z M10,100l10,0 0,10 -10,0 0,-10z M20,100l10,0 0,10 -10,0 0,-10z M30,100l10,0 0,10 -10,0 0,-10z M60,100l10,0 0,10 -10,0 0,-10z M90,100l10,0 0,10 -10,0 0,-10z M140,100l10,0 0,10 -10,0 0,-10z M150,100l10,0 0,10 -10,0 0,-10z M170,100l10,0 0,10 -10,0 0,-10z M180,100l10,0 0,10 -10,0 0,-10z M190,100l10,0 0,10 -10,0 0,-10z M200,100l10,0 0,10 -10,0 0,-10z M210,100l10,0 0,10 -10,0 0,-10z M240,100l10,0 0,10 -10,0 0,-10z M250,100l10,0 0,10 -10,0 0,-10z M270,100l10,0 0,10 -10,0 0,-10z M300,100l10,0 0,10 -10,0 0,-10z M320,100l10,0 0,10 -10,0 0,-10z M330,100l10,0 0,10 -10,0 0,-10z M30,110l10,0 0,10 -10,0 0,-10z M50,110l10,0 0,10 -10,0 0,-10z M70,110l10,0 0,10 -10,0 0,-10z M80,110l10,0 0,10 -10,0 0,-10z M110,110l10,0 0,10 -10,0 0,-10z M120,110l10,0 0,10 -10,0 0,-10z M130,110l10,0 0,10 -10,0 0,-10z M140,110l10,0 0,10 -10,0 0,-10z M150,110l10,0 0,10 -10,0 0,-10z M170,110l10,0 0,10 -10,0 0,-10z M200,110l10,0 0,10 -10,0 0,-10z M220,110l10,0 0,10 -10,0 0,-10z M230,110l10,0 0,10 -10,0 0,-10z M240,110l10,0 0,10 -10,0 0,-10z M300,110l10,0 0,10 -10,0 0,-10z M310,110l10,0 0,10 -10,0 0,-10z M320,110l10,0 0,10 -10,0 0,-10z M330,110l10,0 0,10 -10,0 0,-10z M10,120l10,0 0,10 -10,0 0,-10z M90,120l10,0 0,10 -10,0 0,-10z M100,120l10,0 0,10 -10,0 0,-10z M150,120l10,0 0,10 -10,0 0,-10z M160,120l10,0 0,10 -10,0 0,-10z M180,120l10,0 0,10 -10,0 0,-10z M210,120l10,0 0,10 -10,0 0,-10z M240,120l10,0 0,10 -10,0 0,-10z M280,120l10,0 0,10 -10,0 0,-10z M290,120l10,0 0,10 -10,0 0,-10z M300,120l10,0 0,10 -10,0 0,-10z M320,120l10,0 0,10 -10,0 0,-10z M10,130l10,0 0,10 -10,0 0,-10z M20,130l10,0 0,10 -10,0 0,-10z M30,130l10,0 0,10 -10,0 0,-10z M40,130l10,0 0,10 -10,0 0,-10z M60,130l10,0 0,10 -10,0 0,-10z M70,130l10,0 0,10 -10,0 0,-10z M80,130l10,0 0,10 -10,0 0,-10z M100,130l10,0 0,10 -10,0 0,-10z M110,130l10,0 0,10 -10,0 0,-10z M130,130l10,0 0,10 -10,0 0,-10z M140,130l10,0 0,10 -10,0 0,-10z M160,130l10,0 0,10 -10,0 0,-10z M180,130l10,0 0,10 -10,0 0,-10z M230,130l10,0 0,10 -10,0 0,-10z M250,130l10,0 0,10 -10,0 0,-10z M270,130l10,0 0,10 -10,0 0,-10z M280,130l10,0 0,10 -10,0 0,-10z M320,130l10,0 0,10 -10,0 0,-10z M330,130l10,0 0,10 -10,0 0,-10z M10,140l10,0 0,10 -10,0 0,-10z M20,140l10,0 0,10 -10,0 0,-10z M30,140l10,0 0,10 -10,0 0,-10z M40,140l10,0 0,10 -10,0 0,-10z M50,140l10,0 0,10 -10,0 0,-10z M60,140l10,0 0,10 -10,0 0,-10z M80,140l10,0 0,10 -10,0 0,-10z M100,140l10,0 0,10 -10,0 0,-10z M110,140l10,0 0,10 -10,0 0,-10z M120,140l10,0 0,10 -10,0 0,-10z M150,140l10,0 0,10 -10,0 0,-10z M160,140l10,0 0,10 -10,0 0,-10z M240,140l10,0 0,10 -10,0 0,-10z M250,140l10,0 0,10 -10,0 0,-10z M270,140l10,0 0,10 -10,0 0,-10z M280,140l10,0 0,10 -10,0 0,-10z M320,140l10,0 0,10 -10,0 0,-10z M330,140l10,0 0,10 -10,0 0,-10z M20,150l10,0 0,10 -10,0 0,-10z M50,150l10,0 0,10 -10,0 0,-10z M70,150l10,0 0,10 -10,0 0,-10z M90,150l10,0 0,10 -10,0 0,-10z M120,150l10,0 0,10 -10,0 0,-10z M130,150l10,0 0,10 -10,0 0,-10z M140,150l10,0 0,10 -10,0 0,-10z M150,150l10,0 0,10 -10,0 0,-10z M190,150l10,0 0,10 -10,0 0,-10z M200,150l10,0 0,10 -10,0 0,-10z M230,150l10,0 0,10 -10,0 0,-10z M240,150l10,0 0,10 -10,0 0,-10z M250,150l10,0 0,10 -10,0 0,-10z M280,150l10,0 0,10 -10,0 0,-10z M290,150l10,0 0,10 -10,0 0,-10z M310,150l10,0 0,10 -10,0 0,-10z M330,150l10,0 0,10 -10,0 0,-10z M30,160l10,0 0,10 -10,0 0,-10z M60,160l10,0 0,10 -10,0 0,-10z M100,160l10,0 0,10 -10,0 0,-10z M130,160l10,0 0,10 -10,0 0,-10z M140,160l10,0 0,10 -10,0 0,-10z M160,160l10,0 0,10 -10,0 0,-10z M180,160l10,0 0,10 -10,0 0,-10z M230,160l10,0 0,10 -10,0 0,-10z M240,160l10,0 0,10 -10,0 0,-10z M250,160l10,0 0,10 -10,0 0,-10z M260,160l10,0 0,10 -10,0 0,-10z M270,160l10,0 0,10 -10,0 0,-10z M280,160l10,0 0,10 -10,0 0,-10z M30,170l10,0 0,10 -10,0 0,-10z M40,170l10,0 0,10 -10,0 0,-10z M50,170l10,0 0,10 -10,0 0,-10z M70,170l10,0 0,10 -10,0 0,-10z M80,170l10,0 0,10 -10,0 0,-10z M90,170l10,0 0,10 -10,0 0,-10z M100,170l10,0 0,10 -10,0 0,-10z M110,170l10,0 0,10 -10,0 0,-10z M120,170l10,0 0,10 -10,0 0,-10z M130,170l10,0 0,10 -10,0 0,-10z M140,170l10,0 0,10 -10,0 0,-10z M150,170l10,0 0,10 -10,0 0,-10z M180,170l10,0 0,10 -10,0 0,-10z M200,170l10,0 0,10 -10,0 0,-10z M210,170l10,0 0,10 -10,0 0,-10z M250,170l10,0 0,10 -10,0 0,-10z M270,170l10,0 0,10 -10,0 0,-10z M280,170l10,0 0,10 -10,0 0,-10z M300,170l10,0 0,10 -10,0 0,-10z M320,170l10,0 0,10 -10,0 0,-10z M10,180l10,0 0,10 -10,0 0,-10z M20,180l10,0 0,10 -10,0 0,-10z M80,180l10,0 0,10 -10,0 0,-10z M100,180l10,0 0,10 -10,0 0,-10z M130,180l10,0 0,10 -10,0 0,-10z M140,180l10,0 0,10 -10,0 0,-10z M150,180l10,0 0,10 -10,0 0,-10z M170,180l10,0 0,10 -10,0 0,-10z M180,180l10,0 0,10 -10,0 0,-10z M200,180l10,0 0,10 -10,0 0,-10z M220,180l10,0 0,10 -10,0 0,-10z M230,180l10,0 0,10 -10,0 0,-10z M240,180l10,0 0,10 -10,0 0,-10z M250,180l10,0 0,10 -10,0 0,-10z M270,180l10,0 0,10 -10,0 0,-10z M300,180l10,0 0,10 -10,0 0,-10z M320,180l10,0 0,10 -10,0 0,-10z M330,180l10,0 0,10 -10,0 0,-10z M40,190l10,0 0,10 -10,0 0,-10z M50,190l10,0 0,10 -10,0 0,-10z M60,190l10,0 0,10 -10,0 0,-10z M70,190l10,0 0,10 -10,0 0,-10z M80,190l10,0 0,10 -10,0 0,-10z M100,190l10,0 0,10 -10,0 0,-10z M130,190l10,0 0,10 -10,0 0,-10z M140,190l10,0 0,10 -10,0 0,-10z M160,190l10,0 0,10 -10,0 0,-10z M180,190l10,0 0,10 -10,0 0,-10z M200,190l10,0 0,10 -10,0 0,-10z M210,190l10,0 0,10 -10,0 0,-10z M240,190l10,0 0,10 -10,0 0,-10z M260,190l10,0 0,10 -10,0 0,-10z M280,190l10,0 0,10 -10,0 0,-10z M300,190l10,0 0,10 -10,0 0,-10z M310,190l10,0 0,10 -10,0 0,-10z M320,190l10,0 0,10 -10,0 0,-10z M330,190l10,0 0,10 -10,0 0,-10z M10,200l10,0 0,10 -10,0 0,-10z M20,200l10,0 0,10 -10,0 0,-10z M50,200l10,0 0,10 -10,0 0,-10z M80,200l10,0 0,10 -10,0 0,-10z M90,200l10,0 0,10 -10,0 0,-10z M120,200l10,0 0,10 -10,0 0,-10z M140,200l10,0 0,10 -10,0 0,-10z M150,200l10,0 0,10 -10,0 0,-10z M180,200l10,0 0,10 -10,0 0,-10z M190,200l10,0 0,10 -10,0 0,-10z M230,200l10,0 0,10 -10,0 0,-10z M240,200l10,0 0,10 -10,0 0,-10z M260,200l10,0 0,10 -10,0 0,-10z M290,200l10,0 0,10 -10,0 0,-10z M300,200l10,0 0,10 -10,0 0,-10z M320,200l10,0 0,10 -10,0 0,-10z M10,210l10,0 0,10 -10,0 0,-10z M30,210l10,0 0,10 -10,0 0,-10z M40,210l10,0 0,10 -10,0 0,-10z M70,210l10,0 0,10 -10,0 0,-10z M110,210l10,0 0,10 -10,0 0,-10z M130,210l10,0 0,10 -10,0 0,-10z M150,210l10,0 0,10 -10,0 0,-10z M170,210l10,0 0,10 -10,0 0,-10z M190,210l10,0 0,10 -10,0 0,-10z M200,210l10,0 0,10 -10,0 0,-10z M210,210l10,0 0,10 -10,0 0,-10z M220,210l10,0 0,10 -10,0 0,-10z M230,210l10,0 0,10 -10,0 0,-10z M240,210l10,0 0,10 -10,0 0,-10z M250,210l10,0 0,10 -10,0 0,-10z M270,210l10,0 0,10 -10,0 0,-10z M330,210l10,0 0,10 -10,0 0,-10z M20,220l10,0 0,10 -10,0 0,-10z M30,220l10,0 0,10 -10,0 0,-10z M40,220l10,0 0,10 -10,0 0,-10z M50,220l10,0 0,10 -10,0 0,-10z M90,220l10,0 0,10 -10,0 0,-10z M120,220l10,0 0,10 -10,0 0,-10z M130,220l10,0 0,10 -10,0 0,-10z M160,220l10,0 0,10 -10,0 0,-10z M170,220l10,0 0,10 -10,0 0,-10z M180,220l10,0 0,10 -10,0 0,-10z M190,220l10,0 0,10 -10,0 0,-10z M210,220l10,0 0,10 -10,0 0,-10z M240,220l10,0 0,10 -10,0 0,-10z M270,220l10,0 0,10 -10,0 0,-10z M280,220l10,0 0,10 -10,0 0,-10z M300,220l10,0 0,10 -10,0 0,-10z M310,220l10,0 0,10 -10,0 0,-10z M330,220l10,0 0,10 -10,0 0,-10z M10,230l10,0 0,10 -10,0 0,-10z M20,230l10,0 0,10 -10,0 0,-10z M50,230l10,0 0,10 -10,0 0,-10z M70,230l10,0 0,10 -10,0 0,-10z M80,230l10,0 0,10 -10,0 0,-10z M100,230l10,0 0,10 -10,0 0,-10z M120,230l10,0 0,10 -10,0 0,-10z M140,230l10,0 0,10 -10,0 0,-10z M170,230l10,0 0,10 -10,0 0,-10z M210,230l10,0 0,10 -10,0 0,-10z M230,230l10,0 0,10 -10,0 0,-10z M240,230l10,0 0,10 -10,0 0,-10z M290,230l10,0 0,10 -10,0 0,-10z M300,230l10,0 0,10 -10,0 0,-10z M330,230l10,0 0,10 -10,0 0,-10z M40,240l10,0 0,10 -10,0 0,-10z M50,240l10,0 0,10 -10,0 0,-10z M60,240l10,0 0,10 -10,0 0,-10z M80,240l10,0 0,10 -10,0 0,-10z M150,240l10,0 0,10 -10,0 0,-10z M160,240l10,0 0,10 -10,0 0,-10z M170,240l10,0 0,10 -10,0 0,-10z M180,240l10,0 0,10 -10,0 0,-10z M200,240l10,0 0,10 -10,0 0,-10z M210,240l10,0 0,10 -10,0 0,-10z M280,240l10,0 0,10 -10,0 0,-10z M300,240l10,0 0,10 -10,0 0,-10z M320,240l10,0 0,10 -10,0 0,-10z M330,240l10,0 0,10 -10,0 0,-10z M10,250l10,0 0,10 -10,0 0,-10z M20,250l10,0 0,10 -10,0 0,-10z M30,250l10,0 0,10 -10,0 0,-10z M40,250l10,0 0,10 -10,0 0,-10z M70,250l10,0 0,10 -10,0 0,-10z M140,250l10,0 0,10 -10,0 0,-10z M160,250l10,0 0,10 -10,0 0,-10z M180,250l10,0 0,10 -10,0 0,-10z M250,250l10,0 0,10 -10,0 0,-10z M260,250l10,0 0,10 -10,0 0,-10z M270,250l10,0 0,10 -10,0 0,-10z M280,250l10,0 0,10 -10,0 0,-10z M290,250l10,0 0,10 -10,0 0,-10z M300,250l10,0 0,10 -10,0 0,-10z M330,250l10,0 0,10 -10,0 0,-10z M90,260l10,0 0,10 -10,0 0,-10z M100,260l10,0 0,10 -10,0 0,-10z M150,260l10,0 0,10 -10,0 0,-10z M170,260l10,0 0,10 -10,0 0,-10z M200,260l10,0 0,10 -10,0 0,-10z M210,260l10,0 0,10 -10,0 0,-10z M220,260l10,0 0,10 -10,0 0,-10z M250,260l10,0 0,10 -10,0 0,-10z M290,260l10,0 0,10 -10,0 0,-10z M320,260l10,0 0,10 -10,0 0,-10z M330,260l10,0 0,10 -10,0 0,-10z M10,270l10,0 0,10 -10,0 0,-10z M20,270l10,0 0,10 -10,0 0,-10z M30,270l10,0 0,10 -10,0 0,-10z M40,270l10,0 0,10 -10,0 0,-10z M50,270l10,0 0,10 -10,0 0,-10z M60,270l10,0 0,10 -10,0 0,-10z M70,270l10,0 0,10 -10,0 0,-10z M100,270l10,0 0,10 -10,0 0,-10z M110,270l10,0 0,10 -10,0 0,-10z M120,270l10,0 0,10 -10,0 0,-10z M130,270l10,0 0,10 -10,0 0,-10z M160,270l10,0 0,10 -10,0 0,-10z M170,270l10,0 0,10 -10,0 0,-10z M180,270l10,0 0,10 -10,0 0,-10z M190,270l10,0 0,10 -10,0 0,-10z M200,270l10,0 0,10 -10,0 0,-10z M250,270l10,0 0,10 -10,0 0,-10z M270,270l10,0 0,10 -10,0 0,-10z M290,270l10,0 0,10 -10,0 0,-10z M300,270l10,0 0,10 -10,0 0,-10z M310,270l10,0 0,10 -10,0 0,-10z M320,270l10,0 0,10 -10,0 0,-10z M330,270l10,0 0,10 -10,0 0,-10z M10,280l10,0 0,10 -10,0 0,-10z M70,280l10,0 0,10 -10,0 0,-10z M100,280l10,0 0,10 -10,0 0,-10z M110,280l10,0 0,10 -10,0 0,-10z M120,280l10,0 0,10 -10,0 0,-10z M130,280l10,0 0,10 -10,0 0,-10z M160,280l10,0 0,10 -10,0 0,-10z M180,280l10,0 0,10 -10,0 0,-10z M190,280l10,0 0,10 -10,0 0,-10z M200,280l10,0 0,10 -10,0 0,-10z M220,280l10,0 0,10 -10,0 0,-10z M240,280l10,0 0,10 -10,0 0,-10z M250,280l10,0 0,10 -10,0 0,-10z M290,280l10,0 0,10 -10,0 0,-10z M300,280l10,0 0,10 -10,0 0,-10z M10,290l10,0 0,10 -10,0 0,-10z M30,290l10,0 0,10 -10,0 0,-10z M40,290l10,0 0,10 -10,0 0,-10z M50,290l10,0 0,10 -10,0 0,-10z M70,290l10,0 0,10 -10,0 0,-10z M100,290l10,0 0,10 -10,0 0,-10z M130,290l10,0 0,10 -10,0 0,-10z M150,290l10,0 0,10 -10,0 0,-10z M170,290l10,0 0,10 -10,0 0,-10z M200,290l10,0 0,10 -10,0 0,-10z M220,290l10,0 0,10 -10,0 0,-10z M240,290l10,0 0,10 -10,0 0,-10z M250,290l10,0 0,10 -10,0 0,-10z M260,290l10,0 0,10 -10,0 0,-10z M270,290l10,0 0,10 -10,0 0,-10z M280,290l10,0 0,10 -10,0 0,-10z M290,290l10,0 0,10 -10,0 0,-10z M330,290l10,0 0,10 -10,0 0,-10z M10,300l10,0 0,10 -10,0 0,-10z M30,300l10,0 0,10 -10,0 0,-10z M40,300l10,0 0,10 -10,0 0,-10z M50,300l10,0 0,10 -10,0 0,-10z M70,300l10,0 0,10 -10,0 0,-10z M110,300l10,0 0,10 -10,0 0,-10z M130,300l10,0 0,10 -10,0 0,-10z M140,300l10,0 0,10 -10,0 0,-10z M180,300l10,0 0,10 -10,0 0,-10z M220,300l10,0 0,10 -10,0 0,-10z M240,300l10,0 0,10 -10,0 0,-10z M260,300l10,0 0,10 -10,0 0,-10z M280,300l10,0 0,10 -10,0 0,-10z M290,300l10,0 0,10 -10,0 0,-10z M300,300l10,0 0,10 -10,0 0,-10z M310,300l10,0 0,10 -10,0 0,-10z M330,300l10,0 0,10 -10,0 0,-10z M10,310l10,0 0,10 -10,0 0,-10z M30,310l10,0 0,10 -10,0 0,-10z M40,310l10,0 0,10 -10,0 0,-10z M50,310l10,0 0,10 -10,0 0,-10z M70,310l10,0 0,10 -10,0 0,-10z M90,310l10,0 0,10 -10,0 0,-10z M100,310l10,0 0,10 -10,0 0,-10z M110,310l10,0 0,10 -10,0 0,-10z M120,310l10,0 0,10 -10,0 0,-10z M150,310l10,0 0,10 -10,0 0,-10z M170,310l10,0 0,10 -10,0 0,-10z M180,310l10,0 0,10 -10,0 0,-10z M200,310l10,0 0,10 -10,0 0,-10z M220,310l10,0 0,10 -10,0 0,-10z M230,310l10,0 0,10 -10,0 0,-10z M250,310l10,0 0,10 -10,0 0,-10z M280,310l10,0 0,10 -10,0 0,-10z M290,310l10,0 0,10 -10,0 0,-10z M300,310l10,0 0,10 -10,0 0,-10z M320,310l10,0 0,10 -10,0 0,-10z M330,310l10,0 0,10 -10,0 0,-10z M10,320l10,0 0,10 -10,0 0,-10z M70,320l10,0 0,10 -10,0 0,-10z M90,320l10,0 0,10 -10,0 0,-10z M100,320l10,0 0,10 -10,0 0,-10z M120,320l10,0 0,10 -10,0 0,-10z M140,320l10,0 0,10 -10,0 0,-10z M180,320l10,0 0,10 -10,0 0,-10z M190,320l10,0 0,10 -10,0 0,-10z M230,320l10,0 0,10 -10,0 0,-10z M240,320l10,0 0,10 -10,0 0,-10z M250,320l10,0 0,10 -10,0 0,-10z M260,320l10,0 0,10 -10,0 0,-10z M280,320l10,0 0,10 -10,0 0,-10z M290,320l10,0 0,10 -10,0 0,-10z M300,320l10,0 0,10 -10,0 0,-10z M10,330l10,0 0,10 -10,0 0,-10z M20,330l10,0 0,10 -10,0 0,-10z M30,330l10,0 0,10 -10,0 0,-10z M40,330l10,0 0,10 -10,0 0,-10z M50,330l10,0 0,10 -10,0 0,-10z M60,330l10,0 0,10 -10,0 0,-10z M70,330l10,0 0,10 -10,0 0,-10z M110,330l10,0 0,10 -10,0 0,-10z M190,330l10,0 0,10 -10,0 0,-10z M200,330l10,0 0,10 -10,0 0,-10z M250,330l10,0 0,10 -10,0 0,-10z M260,330l10,0 0,10 -10,0 0,-10z M280,330l10,0 0,10 -10,0 0,-10z M290,330l10,0 0,10 -10,0 0,-10z M300,330l10,0 0,10 -10,0 0,-10z M330,330l10,0 0,10 -10,0 0,-10z " stroke="transparent" fill="rgb(0, 0, 0)"/></svg>